<?xml version="1.0" encoding="UTF-8"?><svg id="Layer_1" xmlns="http://www.w3.org/2000/svg" viewBox="0 0 680 160"><path d="M213.68,70.02c-3.94-2.38-7.06-5.58-9.37-9.59-2.31-4.01-3.46-8.4-3.46-13.16s1.15-9.15,3.46-13.16c2.31-4.01,5.43-7.21,9.37-9.59,3.94-2.38,8.22-3.57,12.84-3.57h22.17c4.04,0,7.8.95,11.3,2.84,3.5,1.9,6.35,4.46,8.53,7.69,2.19,3.23,3.43,6.77,3.72,10.61h-16.48c-.15-1.21-.68-2.31-1.6-3.28-.92-.97-2.12-1.75-3.57-2.33s-3.04-.88-4.74-.88h-16.48c-2.63,0-4.88.5-6.75,1.5-1.87,1-3.28,2.37-4.23,4.12-.95,1.75-1.42,3.77-1.42,6.05s.47,4.3,1.42,6.05c.95,1.75,2.36,3.12,4.23,4.12,1.87,1,4.12,1.5,6.75,1.5h16.48c1.7,0,3.28-.29,4.74-.88s2.65-1.36,3.57-2.33c.92-.97,1.46-2.07,1.6-3.28h16.48c-.29,3.84-1.53,7.38-3.72,10.61-2.19,3.23-5.03,5.8-8.53,7.69-3.5,1.9-7.27,2.84-11.3,2.84h-22.17c-4.62,0-8.9-1.19-12.84-3.57Z"/><path d="M289.82,70.02c-3.94-2.38-7.06-5.58-9.37-9.59-2.31-4.01-3.46-8.4-3.46-13.16s1.15-9.15,3.46-13.16c2.31-4.01,5.43-7.21,9.37-9.59,3.94-2.38,8.22-3.57,12.84-3.57h22.46c4.62,0,8.9,1.18,12.84,3.54,3.94,2.36,7.06,5.56,9.37,9.59,2.31,4.04,3.46,8.44,3.46,13.2s-1.16,9.17-3.46,13.2c-2.31,4.04-5.43,7.23-9.37,9.59-3.94,2.36-8.22,3.54-12.84,3.54h-22.46c-4.62,0-8.9-1.19-12.84-3.57ZM328.62,57.41c1.9-1.02,3.38-2.41,4.45-4.16,1.07-1.75,1.6-3.74,1.6-5.98s-.54-4.23-1.6-5.98c-1.07-1.75-2.55-3.14-4.45-4.16-1.9-1.02-4.01-1.53-6.35-1.53h-16.77c-2.63,0-4.88.5-6.75,1.5-1.87,1-3.28,2.37-4.23,4.12-.95,1.75-1.42,3.77-1.42,6.05s.47,4.3,1.42,6.05c.95,1.75,2.36,3.12,4.23,4.12,1.87,1,4.12,1.5,6.75,1.5h16.77c2.33,0,4.45-.51,6.35-1.53Z"/><path d="M369.06,70.9c-4.06-1.8-7.16-4.4-9.3-7.8-2.14-3.4-3.21-7.44-3.21-12.11v-29.25h16.05v25.38c0,3.89.96,6.84,2.88,8.86,1.92,2.02,4.73,3.03,8.42,3.03h10.06c3.69,0,6.5-1.01,8.42-3.03,1.92-2.02,2.88-4.97,2.88-8.86v-25.38h16.05v29.25c0,4.67-1.07,8.7-3.21,12.11-2.14,3.4-5.24,6.01-9.3,7.8-4.06,1.8-8.86,2.7-14.4,2.7h-10.94c-5.54,0-10.35-.9-14.4-2.7Z"/><path d="M431.78,25.21c2.31-2.31,5.65-3.46,10.03-3.46h27.93c5.44,0,9.96.77,13.53,2.3,3.57,1.53,6.21,3.68,7.91,6.45,1.7,2.77,2.55,6.03,2.55,9.77s-.85,6.99-2.55,9.74c-1.7,2.75-4.34,4.89-7.91,6.42-3.57,1.53-8.08,2.3-13.53,2.3h-30.56v-13.13h32.53c1.94,0,3.44-.47,4.49-1.42,1.05-.95,1.57-2.25,1.57-3.9s-.51-3.03-1.53-3.97c-1.02-.95-2.53-1.42-4.52-1.42h-27.35v37.93h-16.05v-37.56c0-4.38,1.15-7.72,3.46-10.03ZM463.04,53.91h17.58l14.59,18.89h-17.94l-14.22-18.89Z"/><path d="M518.98,36.33h-22.61v-14.59h61.26v14.59h-22.61v36.47h-16.05v-36.47Z"/><path d="M213.68,135.49c-3.94-2.38-7.06-5.58-9.37-9.59-2.31-4.01-3.46-8.4-3.46-13.16s1.15-9.15,3.46-13.16c2.31-4.01,5.43-7.21,9.37-9.59,3.94-2.38,8.22-3.57,12.84-3.57h22.17c4.04,0,7.8.95,11.3,2.84,3.5,1.9,6.35,4.46,8.53,7.69,2.19,3.23,3.43,6.77,3.72,10.61h-16.48c-.15-1.21-.68-2.31-1.6-3.28-.92-.97-2.12-1.75-3.57-2.33-1.46-.58-3.04-.88-4.74-.88h-16.48c-2.63,0-4.88.5-6.75,1.5-1.87,1-3.28,2.37-4.23,4.12-.95,1.75-1.42,3.77-1.42,6.05s.47,4.3,1.42,6.05c.95,1.75,2.36,3.12,4.23,4.12,1.87,1,4.12,1.5,6.75,1.5h16.48c1.7,0,3.28-.29,4.74-.88s2.65-1.36,3.57-2.33c.92-.97,1.46-2.07,1.6-3.28h16.48c-.29,3.84-1.53,7.38-3.72,10.61-2.19,3.23-5.03,5.8-8.53,7.69-3.5,1.9-7.27,2.84-11.3,2.84h-22.17c-4.62,0-8.9-1.19-12.84-3.57Z"/><path d="M290.3,136.36c-4.06-1.8-7.16-4.4-9.3-7.8-2.14-3.4-3.21-7.44-3.21-12.11v-29.25h16.05v25.38c0,3.89.96,6.84,2.88,8.86,1.92,2.02,4.73,3.03,8.42,3.03h10.06c3.69,0,6.5-1.01,8.42-3.03,1.92-2.02,2.88-4.97,2.88-8.86v-25.38h16.05v29.25c0,4.67-1.07,8.7-3.21,12.11-2.14,3.4-5.24,6.01-9.3,7.8-4.06,1.8-8.86,2.7-14.4,2.7h-10.94c-5.54,0-10.35-.9-14.4-2.7Z"/><path d="M353.53,134.79c-2.31-2.31-3.46-5.65-3.46-10.03v-37.56h16.05v36.47h40.19v14.59h-42.74c-4.38,0-7.72-1.15-10.03-3.46Z"/><path d="M416.34,101.79h-22.61v-14.59h61.26v14.59h-22.61v36.47h-16.05v-36.47Z"/><path d="M472.53,136.36c-4.06-1.8-7.16-4.4-9.3-7.8-2.14-3.4-3.21-7.44-3.21-12.11v-29.25h16.05v25.38c0,3.89.96,6.84,2.88,8.86,1.92,2.02,4.73,3.03,8.42,3.03h10.06c3.69,0,6.5-1.01,8.42-3.03,1.92-2.02,2.88-4.97,2.88-8.86v-25.38h16.05v29.25c0,4.67-1.07,8.7-3.21,12.11-2.14,3.4-5.24,6.01-9.3,7.8-4.06,1.8-8.86,2.7-14.4,2.7h-10.94c-5.54,0-10.35-.9-14.4-2.7Z"/><path d="M536.25,90.67c2.31-2.31,5.65-3.46,10.03-3.46h27.93c5.44,0,9.96.77,13.53,2.3,3.57,1.53,6.21,3.68,7.91,6.45,1.7,2.77,2.55,6.03,2.55,9.77s-.85,6.99-2.55,9.74c-1.7,2.75-4.34,4.89-7.91,6.42-3.57,1.53-8.08,2.3-13.53,2.3h-30.56v-13.13h32.53c1.94,0,3.44-.47,4.49-1.42,1.05-.95,1.57-2.25,1.57-3.9s-.51-3.03-1.53-3.97-2.53-1.42-4.52-1.42h-27.35v37.93h-16.05v-37.56c0-4.38,1.15-7.72,3.46-10.03ZM567.5,119.37h17.58l14.59,18.89h-17.94l-14.22-18.89Z"/><path d="M608.16,134.79c-2.31-2.31-3.46-5.65-3.46-10.03v-24.07c0-4.38,1.15-7.72,3.46-10.03,2.31-2.31,5.65-3.46,10.03-3.46h44.93v13.78h-42.74v23.48h43.76v13.78h-45.95c-4.38,0-7.72-1.15-10.03-3.46ZM608.56,106.09h51.13v13.13h-51.13v-13.13Z"/><path d="M118.96,64.1h50.12s.01,0,.01-.01V21.73s0-.01-.01-.01h-37.59s0,0,0,0c-.25.1-.49.2-.73.3-19.05,7.98-30.98,23.18-35.8,40.21-.31,1.1-1.32,1.87-2.47,1.87h0c-1.15,0-2.16-.76-2.47-1.87-4.83-17.03-16.76-32.23-35.8-40.21-.24-.1-.49-.2-.73-.3,0,0,0,0,0,0H15.87s-.01,0-.01.01v42.36s0,.01.01.01h50.12c9.08,0,16.46,7.52,16.07,16.59-.36,8.46-7.33,15.2-15.88,15.2H15.87s-.01,0-.01.01v42.36s0,.01.01.01h37.59s0,0,0,0c.25-.1.49-.2.73-.3,19.05-7.98,30.98-23.18,35.8-40.21.31-1.1,1.32-1.87,2.47-1.87h0c1.15,0,2.16.76,2.47,1.87,4.83,17.03,16.76,32.23,35.8,40.21.24.1.49.2.73.3,0,0,0,0,0,0h37.59s.01,0,.01-.01v-42.36s0-.01-.01-.01h-50.32c-8.55,0-15.52-6.74-15.88-15.2-.39-9.07,6.99-16.59,16.07-16.59Z"/></svg>